<svg width="120" height="120" viewBox="0 0 120 120" xmlns="http://www.w3.org/2000/svg">
    <rect width="100%" height="100%" fill="#c6d267" rx="16" />
    <rect x="16" y="16" width="17.6" height="17.6" fill="#bb142d" />
<rect x="86.4" y="16" width="17.6" height="17.6" fill="#bb142d" />
<rect x="33.6" y="16" width="17.6" height="17.6" fill="#bb142d" />
<rect x="68.80000000000001" y="16" width="17.6" height="17.6" fill="#bb142d" />
<rect x="16" y="33.6" width="17.6" height="17.6" fill="#bb142d" />
<rect x="86.4" y="33.6" width="17.6" height="17.6" fill="#bb142d" />
<rect x="33.6" y="33.6" width="17.6" height="17.6" fill="#bb142d" />
<rect x="68.80000000000001" y="33.6" width="17.6" height="17.6" fill="#bb142d" />
<rect x="51.2" y="33.6" width="17.6" height="17.6" fill="#bb142d" />
<rect x="16" y="51.2" width="17.6" height="17.6" fill="#bb142d" />
<rect x="86.4" y="51.2" width="17.6" height="17.6" fill="#bb142d" />
<rect x="33.6" y="68.80000000000001" width="17.6" height="17.6" fill="#bb142d" />
<rect x="68.80000000000001" y="68.80000000000001" width="17.6" height="17.6" fill="#bb142d" />
<rect x="51.2" y="68.80000000000001" width="17.6" height="17.6" fill="#bb142d" />
<rect x="33.6" y="86.4" width="17.6" height="17.6" fill="#bb142d" />
<rect x="68.80000000000001" y="86.4" width="17.6" height="17.6" fill="#bb142d" />
<rect x="51.2" y="86.4" width="17.6" height="17.6" fill="#bb142d" />

</svg>